<?xml version="1.0" encoding="UTF-8"?>
<svg xmlns="http://www.w3.org/2000/svg" xmlns:xlink="http://www.w3.org/1999/xlink" width="288pt" height="288pt" viewBox="0 0 288 288" version="1.1">
<g id="surface1">
<path style="fill:none;stroke-width:0.3985;stroke-linecap:butt;stroke-linejoin:miter;stroke:rgb(75%,0%,25%);stroke-opacity:1;stroke-miterlimit:10;" d="M 141.734375 141.734625 L -141.734375 141.734625 L -141.734375 -141.734125 L 141.734375 -141.734125 Z M 141.734375 141.734625 " transform="matrix(1,0,0,-1,144,144.719)"/>
<path style="fill:none;stroke-width:0.3985;stroke-linecap:butt;stroke-linejoin:miter;stroke:rgb(75%,0%,25%);stroke-opacity:1;stroke-miterlimit:10;" d="M 89.667969 141.734625 L -141.734375 89.668219 L -89.667969 -141.734125 L 141.734375 -89.667719 Z M 89.667969 141.734625 " transform="matrix(1,0,0,-1,144,144.719)"/>
<path style="fill:none;stroke-width:0.3985;stroke-linecap:butt;stroke-linejoin:miter;stroke:rgb(75%,0%,25%);stroke-opacity:1;stroke-miterlimit:10;" d="M 47.167969 132.168219 L -132.167969 47.164312 L -47.167969 -132.171625 L 132.167969 -47.167719 Z M 47.167969 132.168219 " transform="matrix(1,0,0,-1,144,144.719)"/>
<path style="fill:none;stroke-width:0.3985;stroke-linecap:butt;stroke-linejoin:miter;stroke:rgb(75%,0%,25%);stroke-opacity:1;stroke-miterlimit:10;" d="M 14.226562 116.554937 L -116.554688 14.226812 L -14.226562 -116.558344 L 116.554688 -14.226313 Z M 14.226562 116.554937 " transform="matrix(1,0,0,-1,144,144.719)"/>
<path style="fill:none;stroke-width:0.3985;stroke-linecap:butt;stroke-linejoin:miter;stroke:rgb(75%,0%,25%);stroke-opacity:1;stroke-miterlimit:10;" d="M -9.792969 97.761969 L -97.761719 -9.792719 L 9.792969 -97.761469 L 97.761719 9.793219 Z M -9.792969 97.761969 " transform="matrix(1,0,0,-1,144,144.719)"/>
<path style="fill:none;stroke-width:0.3985;stroke-linecap:butt;stroke-linejoin:miter;stroke:rgb(75%,0%,25%);stroke-opacity:1;stroke-miterlimit:10;" d="M -25.953125 78.008062 L -78.007812 -25.952875 L 25.953125 -78.007563 L 78.007812 25.949469 Z M -25.953125 78.008062 " transform="matrix(1,0,0,-1,144,144.719)"/>
<path style="fill:none;stroke-width:0.3985;stroke-linecap:butt;stroke-linejoin:miter;stroke:rgb(75%,0%,25%);stroke-opacity:1;stroke-miterlimit:10;" d="M -35.511719 58.914312 L -58.914062 -35.511469 L 35.511719 -58.913813 L 58.914062 35.511969 Z M -35.511719 58.914312 " transform="matrix(1,0,0,-1,144,144.719)"/>
<path style="fill:none;stroke-width:0.3985;stroke-linecap:butt;stroke-linejoin:miter;stroke:rgb(75%,0%,25%);stroke-opacity:1;stroke-miterlimit:10;" d="M -39.808594 41.566656 L -41.566406 -39.81225 L 39.808594 -41.566156 L 41.566406 39.808844 Z M -39.808594 41.566656 " transform="matrix(1,0,0,-1,144,144.719)"/>
<path style="fill:none;stroke-width:0.3985;stroke-linecap:butt;stroke-linejoin:miter;stroke:rgb(75%,0%,25%);stroke-opacity:1;stroke-miterlimit:10;" d="M -40.132812 26.621344 L -26.621094 -40.132563 L 40.132812 -26.620844 L 26.621094 40.133062 Z M -40.132812 26.621344 " transform="matrix(1,0,0,-1,144,144.719)"/>
<path style="fill:none;stroke-width:0.3985;stroke-linecap:butt;stroke-linejoin:miter;stroke:rgb(75%,0%,25%);stroke-opacity:1;stroke-miterlimit:10;" d="M -37.652344 14.359625 L -14.359375 -37.652094 L 37.652344 -14.359125 L 14.359375 37.652594 Z M -37.652344 14.359625 " transform="matrix(1,0,0,-1,144,144.719)"/>
<path style="fill:none;stroke-width:0.3985;stroke-linecap:butt;stroke-linejoin:miter;stroke:rgb(75%,0%,25%);stroke-opacity:1;stroke-miterlimit:10;" d="M -33.371094 4.808844 L -4.808594 -33.37475 L 33.371094 -4.808344 L 4.808594 33.371344 Z M -33.371094 4.808844 " transform="matrix(1,0,0,-1,144,144.719)"/>
<path style="fill:none;stroke-width:0.3985;stroke-linecap:butt;stroke-linejoin:miter;stroke:rgb(75%,0%,25%);stroke-opacity:1;stroke-miterlimit:10;" d="M -28.125 -2.206781 L 2.207031 -28.12475 L 28.125 2.207281 L -2.207031 28.12525 Z M -28.125 -2.206781 " transform="matrix(1,0,0,-1,144,144.719)"/>
<path style="fill:none;stroke-width:0.3985;stroke-linecap:butt;stroke-linejoin:miter;stroke:rgb(75%,0%,25%);stroke-opacity:1;stroke-miterlimit:10;" d="M -22.554688 -6.9685 L 6.96875 -22.554438 L 22.554688 6.969 L -6.96875 22.554937 Z M -22.554688 -6.9685 " transform="matrix(1,0,0,-1,144,144.719)"/>
<path style="fill:none;stroke-width:0.3985;stroke-linecap:butt;stroke-linejoin:miter;stroke:rgb(75%,0%,25%);stroke-opacity:1;stroke-miterlimit:10;" d="M -17.132812 -9.831781 L 9.832031 -17.132563 L 17.132812 9.832281 L -9.832031 17.133062 Z M -17.132812 -9.831781 " transform="matrix(1,0,0,-1,144,144.719)"/>
<path style="fill:none;stroke-width:0.3985;stroke-linecap:butt;stroke-linejoin:miter;stroke:rgb(75%,0%,25%);stroke-opacity:1;stroke-miterlimit:10;" d="M -12.179688 -11.171625 L 11.171875 -12.179438 L 12.179688 11.172125 L -11.171875 12.179937 Z M -12.179688 -11.171625 " transform="matrix(1,0,0,-1,144,144.719)"/>
<path style="fill:none;stroke-width:0.3985;stroke-linecap:butt;stroke-linejoin:miter;stroke:rgb(75%,0%,25%);stroke-opacity:1;stroke-miterlimit:10;" d="M -7.890625 -11.355219 L 11.355469 -7.890375 L 7.890625 11.355719 L -11.355469 7.890875 Z M -7.890625 -11.355219 " transform="matrix(1,0,0,-1,144,144.719)"/>
</g>
</svg>
