<?xml version="1.0" encoding="UTF-8"?>
<svg xmlns="http://www.w3.org/2000/svg" xmlns:xlink="http://www.w3.org/1999/xlink" width="288pt" height="288pt" viewBox="0 0 288 288" version="1.1">
<g id="surface1">
<path style="fill:none;stroke-width:0.3985;stroke-linecap:butt;stroke-linejoin:miter;stroke:rgb(75%,0%,25%);stroke-opacity:1;stroke-miterlimit:10;" d="M 141.734375 141.734625 L -141.734375 141.734625 L -141.734375 -141.734125 L 141.734375 -141.734125 Z M 141.734375 141.734625 " transform="matrix(1,0,0,-1,144,144.719)"/>
<path style="fill:none;stroke-width:0.3985;stroke-linecap:butt;stroke-linejoin:miter;stroke:rgb(75%,0%,25%);stroke-opacity:1;stroke-miterlimit:10;" d="M 20.246094 141.734625 L -141.734375 20.246344 L -20.246094 -141.734125 L 141.734375 -20.24975 Z M 20.246094 141.734625 " transform="matrix(1,0,0,-1,144,144.719)"/>
<path style="fill:none;stroke-width:0.3985;stroke-linecap:butt;stroke-linejoin:miter;stroke:rgb(75%,0%,25%);stroke-opacity:1;stroke-miterlimit:10;" d="M -49.171875 89.668219 L -89.667969 -49.171625 L 49.171875 -89.667719 L 89.667969 49.172125 Z M -49.171875 89.668219 " transform="matrix(1,0,0,-1,144,144.719)"/>
<path style="fill:none;stroke-width:0.3985;stroke-linecap:butt;stroke-linejoin:miter;stroke:rgb(75%,0%,25%);stroke-opacity:1;stroke-miterlimit:10;" d="M -66.527344 30.164312 L -30.164062 -66.527094 L 66.527344 -30.163813 L 30.164062 66.527594 Z M -66.527344 30.164312 " transform="matrix(1,0,0,-1,144,144.719)"/>
<path style="fill:none;stroke-width:0.3985;stroke-linecap:butt;stroke-linejoin:miter;stroke:rgb(75%,0%,25%);stroke-opacity:1;stroke-miterlimit:10;" d="M -50.945312 -11.277094 L 11.277344 -50.945063 L 50.945312 11.277594 L -11.277344 50.945562 Z M -50.945312 -11.277094 " transform="matrix(1,0,0,-1,144,144.719)"/>
<path style="fill:none;stroke-width:0.3985;stroke-linecap:butt;stroke-linejoin:miter;stroke:rgb(75%,0%,25%);stroke-opacity:1;stroke-miterlimit:10;" d="M -24.277344 -28.277094 L 28.277344 -24.281 L 24.277344 28.277594 L -28.277344 24.277594 Z M -24.277344 -28.277094 " transform="matrix(1,0,0,-1,144,144.719)"/>
<path style="fill:none;stroke-width:0.3985;stroke-linecap:butt;stroke-linejoin:miter;stroke:rgb(75%,0%,25%);stroke-opacity:1;stroke-miterlimit:10;" d="M -1.753906 -26.56225 L 26.5625 -1.753656 L 1.753906 26.56275 L -26.5625 1.754156 Z M -1.753906 -26.56225 " transform="matrix(1,0,0,-1,144,144.719)"/>
<path style="fill:none;stroke-width:0.3985;stroke-linecap:butt;stroke-linejoin:miter;stroke:rgb(75%,0%,25%);stroke-opacity:1;stroke-miterlimit:10;" d="M 10.378906 -15.929438 L 15.929688 10.379156 L -10.378906 15.929937 L -15.929688 -10.378656 Z M 10.378906 -15.929438 " transform="matrix(1,0,0,-1,144,144.719)"/>
<path style="fill:none;stroke-width:0.3985;stroke-linecap:butt;stroke-linejoin:miter;stroke:rgb(75%,0%,25%);stroke-opacity:1;stroke-miterlimit:10;" d="M 12.757812 -4.656 L 4.65625 12.758062 L -12.757812 4.652594 L -4.65625 -12.757563 Z M 12.757812 -4.656 " transform="matrix(1,0,0,-1,144,144.719)"/>
<path style="fill:none;stroke-width:0.3985;stroke-linecap:butt;stroke-linejoin:miter;stroke:rgb(75%,0%,25%);stroke-opacity:1;stroke-miterlimit:10;" d="M 9.285156 2.808844 L -2.808594 9.285406 L -9.285156 -2.808344 L 2.808594 -9.284906 Z M 9.285156 2.808844 " transform="matrix(1,0,0,-1,144,144.719)"/>
<path style="fill:none;stroke-width:0.3985;stroke-linecap:butt;stroke-linejoin:miter;stroke:rgb(75%,0%,25%);stroke-opacity:1;stroke-miterlimit:10;" d="M 4.101562 5.586187 L -5.585938 4.101812 L -4.101562 -5.585688 L 5.585938 -4.101313 Z M 4.101562 5.586187 " transform="matrix(1,0,0,-1,144,144.719)"/>
<path style="fill:none;stroke-width:0.3985;stroke-linecap:butt;stroke-linejoin:miter;stroke:rgb(75%,0%,25%);stroke-opacity:1;stroke-miterlimit:10;" d="M -0.046875 4.949469 L -4.949219 -0.046625 L 0.046875 -4.948969 L 4.949219 0.047125 Z M -0.046875 4.949469 " transform="matrix(1,0,0,-1,144,144.719)"/>
<path style="fill:none;stroke-width:0.3985;stroke-linecap:butt;stroke-linejoin:miter;stroke:rgb(75%,0%,25%);stroke-opacity:1;stroke-miterlimit:10;" d="M -2.148438 2.804937 L -2.804688 -2.148188 L 2.148438 -2.804438 L 2.804688 2.148687 Z M -2.148438 2.804937 " transform="matrix(1,0,0,-1,144,144.719)"/>
<path style="fill:none;stroke-width:0.3985;stroke-linecap:butt;stroke-linejoin:miter;stroke:rgb(75%,0%,25%);stroke-opacity:1;stroke-miterlimit:10;" d="M -2.433594 0.683844 L -0.683594 -2.433344 L 2.433594 -0.683344 L 0.683594 2.433844 Z M -2.433594 0.683844 " transform="matrix(1,0,0,-1,144,144.719)"/>
<path style="fill:none;stroke-width:0.3985;stroke-linecap:butt;stroke-linejoin:miter;stroke:rgb(75%,0%,25%);stroke-opacity:1;stroke-miterlimit:10;" d="M -1.679688 -0.652094 L 0.652344 -1.679438 L 1.679688 0.652594 L -0.652344 1.679937 Z M -1.679688 -0.652094 " transform="matrix(1,0,0,-1,144,144.719)"/>
<path style="fill:none;stroke-width:0.3985;stroke-linecap:butt;stroke-linejoin:miter;stroke:rgb(75%,0%,25%);stroke-opacity:1;stroke-miterlimit:10;" d="M -0.683594 -1.0935 L 1.09375 -0.683344 L 0.683594 1.094 L -1.09375 0.683844 Z M -0.683594 -1.0935 " transform="matrix(1,0,0,-1,144,144.719)"/>
</g>
</svg>
