<?xml version="1.0" encoding="UTF-8"?>
<svg xmlns="http://www.w3.org/2000/svg" xmlns:xlink="http://www.w3.org/1999/xlink" width="288pt" height="288pt" viewBox="0 0 288 288" version="1.1">
<g id="surface1">
<path style="fill:none;stroke-width:0.3985;stroke-linecap:butt;stroke-linejoin:miter;stroke:rgb(75%,0%,25%);stroke-opacity:1;stroke-miterlimit:10;" d="M 141.734375 141.734625 L -141.734375 141.734625 L -141.734375 -141.734125 L 141.734375 -141.734125 Z M 141.734375 141.734625 " transform="matrix(1,0,0,-1,144,144.719)"/>
<path style="fill:none;stroke-width:0.3985;stroke-linecap:butt;stroke-linejoin:miter;stroke:rgb(75%,0%,25%);stroke-opacity:1;stroke-miterlimit:10;" d="M 3.457031 141.734625 L -141.734375 3.457281 L -3.457031 -141.734125 L 141.734375 -3.456781 Z M 3.457031 141.734625 " transform="matrix(1,0,0,-1,144,144.719)"/>
<path style="fill:none;stroke-width:0.3985;stroke-linecap:butt;stroke-linejoin:miter;stroke:rgb(75%,0%,25%);stroke-opacity:1;stroke-miterlimit:10;" d="M -67.367188 74.2815 L -74.28125 -67.370844 L 67.367188 -74.281 L 74.28125 67.367437 Z M -67.367188 74.2815 " transform="matrix(1,0,0,-1,144,144.719)"/>
<path style="fill:none;stroke-width:0.3985;stroke-linecap:butt;stroke-linejoin:miter;stroke:rgb(75%,0%,25%);stroke-opacity:1;stroke-miterlimit:10;" d="M -70.738281 5.183844 L -5.183594 -70.738031 L 70.738281 -5.183344 L 5.183594 70.738531 Z M -70.738281 5.183844 " transform="matrix(1,0,0,-1,144,144.719)"/>
<path style="fill:none;stroke-width:0.3985;stroke-linecap:butt;stroke-linejoin:miter;stroke:rgb(75%,0%,25%);stroke-opacity:1;stroke-miterlimit:10;" d="M -38.761719 -31.855219 L 31.851562 -38.761469 L 38.761719 31.851812 L -31.851562 38.761969 Z M -38.761719 -31.855219 " transform="matrix(1,0,0,-1,144,144.719)"/>
<path style="fill:none;stroke-width:0.3985;stroke-linecap:butt;stroke-linejoin:miter;stroke:rgb(75%,0%,25%);stroke-opacity:1;stroke-miterlimit:10;" d="M -4.316406 -35.222406 L 35.222656 -4.316156 L 4.316406 35.222906 L -35.222656 4.316656 Z M -4.316406 -35.222406 " transform="matrix(1,0,0,-1,144,144.719)"/>
<path style="fill:none;stroke-width:0.3985;stroke-linecap:butt;stroke-linejoin:miter;stroke:rgb(75%,0%,25%);stroke-opacity:1;stroke-miterlimit:10;" d="M 14.96875 -20.144281 L 20.144531 14.969 L -14.96875 20.144781 L -20.144531 -14.9685 Z M 14.96875 -20.144281 " transform="matrix(1,0,0,-1,144,144.719)"/>
<path style="fill:none;stroke-width:0.3985;stroke-linecap:butt;stroke-linejoin:miter;stroke:rgb(75%,0%,25%);stroke-opacity:1;stroke-miterlimit:10;" d="M 17.496094 -3.015375 L 3.015625 17.496344 L -17.496094 3.015875 L -3.015625 -17.495844 Z M 17.496094 -3.015375 " transform="matrix(1,0,0,-1,144,144.719)"/>
<path style="fill:none;stroke-width:0.3985;stroke-linecap:butt;stroke-linejoin:miter;stroke:rgb(75%,0%,25%);stroke-opacity:1;stroke-miterlimit:10;" d="M 10.429688 6.988531 L -6.988281 10.429937 L -10.429688 -6.991938 L 6.988281 -10.433344 Z M 10.429688 6.988531 " transform="matrix(1,0,0,-1,144,144.719)"/>
<path style="fill:none;stroke-width:0.3985;stroke-linecap:butt;stroke-linejoin:miter;stroke:rgb(75%,0%,25%);stroke-opacity:1;stroke-miterlimit:10;" d="M 1.933594 8.668219 L -8.667969 1.933844 L -1.933594 -8.667719 L 8.667969 -1.933344 Z M 1.933594 8.668219 " transform="matrix(1,0,0,-1,144,144.719)"/>
<path style="fill:none;stroke-width:0.3985;stroke-linecap:butt;stroke-linejoin:miter;stroke:rgb(75%,0%,25%);stroke-opacity:1;stroke-miterlimit:10;" d="M -3.238281 5.383062 L -5.382812 -3.238031 L 3.238281 -5.382563 L 5.382812 3.238531 Z M -3.238281 5.383062 " transform="matrix(1,0,0,-1,144,144.719)"/>
<path style="fill:none;stroke-width:0.3985;stroke-linecap:butt;stroke-linejoin:miter;stroke:rgb(75%,0%,25%);stroke-opacity:1;stroke-miterlimit:10;" d="M -4.285156 1.176031 L -1.175781 -4.284906 L 4.285156 -1.175531 L 1.175781 4.285406 Z M -4.285156 1.176031 " transform="matrix(1,0,0,-1,144,144.719)"/>
<path style="fill:none;stroke-width:0.3985;stroke-linecap:butt;stroke-linejoin:miter;stroke:rgb(75%,0%,25%);stroke-opacity:1;stroke-miterlimit:10;" d="M -2.769531 -1.488031 L 1.488281 -2.769281 L 2.769531 1.488531 L -1.488281 2.769781 Z M -2.769531 -1.488031 " transform="matrix(1,0,0,-1,144,144.719)"/>
<path style="fill:none;stroke-width:0.3985;stroke-linecap:butt;stroke-linejoin:miter;stroke:rgb(75%,0%,25%);stroke-opacity:1;stroke-miterlimit:10;" d="M -0.691406 -2.113031 L 2.113281 -0.691156 L 0.691406 2.113531 L -2.113281 0.691656 Z M -0.691406 -2.113031 " transform="matrix(1,0,0,-1,144,144.719)"/>
<path style="fill:none;stroke-width:0.3985;stroke-linecap:butt;stroke-linejoin:miter;stroke:rgb(75%,0%,25%);stroke-opacity:1;stroke-miterlimit:10;" d="M 0.675781 -1.421625 L 1.421875 0.676031 L -0.675781 1.418219 L -1.421875 -0.675531 Z M 0.675781 -1.421625 " transform="matrix(1,0,0,-1,144,144.719)"/>
<path style="fill:none;stroke-width:0.3985;stroke-linecap:butt;stroke-linejoin:miter;stroke:rgb(75%,0%,25%);stroke-opacity:1;stroke-miterlimit:10;" d="M 1.039062 -0.398188 L 0.398438 1.039312 L -1.039062 0.398687 L -0.398438 -1.038813 Z M 1.039062 -0.398188 " transform="matrix(1,0,0,-1,144,144.719)"/>
</g>
</svg>
