<?xml version="1.0" encoding="UTF-8"?>
<svg xmlns="http://www.w3.org/2000/svg" xmlns:xlink="http://www.w3.org/1999/xlink" width="288pt" height="288pt" viewBox="0 0 288 288" version="1.1">
<g id="surface1">
<path style="fill:none;stroke-width:0.3985;stroke-linecap:butt;stroke-linejoin:miter;stroke:rgb(75%,0%,25%);stroke-opacity:1;stroke-miterlimit:10;" d="M 141.734375 141.734625 L -141.734375 141.734625 L -141.734375 -141.734125 L 141.734375 -141.734125 Z M 141.734375 141.734625 " transform="matrix(1,0,0,-1,144,144.719)"/>
<path style="fill:none;stroke-width:0.3985;stroke-linecap:butt;stroke-linejoin:miter;stroke:rgb(75%,0%,25%);stroke-opacity:1;stroke-miterlimit:10;" d="M 43.136719 141.734625 L -141.734375 43.136969 L -43.136719 -141.734125 L 141.734375 -43.136469 Z M 43.136719 141.734625 " transform="matrix(1,0,0,-1,144,144.719)"/>
<path style="fill:none;stroke-width:0.3985;stroke-linecap:butt;stroke-linejoin:miter;stroke:rgb(75%,0%,25%);stroke-opacity:1;stroke-miterlimit:10;" d="M -21.167969 107.441656 L -107.441406 -21.167719 L 21.167969 -107.441156 L 107.441406 21.168219 Z M -21.167969 107.441656 " transform="matrix(1,0,0,-1,144,144.719)"/>
<path style="fill:none;stroke-width:0.3985;stroke-linecap:butt;stroke-linejoin:miter;stroke:rgb(75%,0%,25%);stroke-opacity:1;stroke-miterlimit:10;" d="M -51.175781 62.707281 L -62.707031 -51.175531 L 51.175781 -62.706781 L 62.707031 51.176031 Z M -51.175781 62.707281 " transform="matrix(1,0,0,-1,144,144.719)"/>
<path style="fill:none;stroke-width:0.3985;stroke-linecap:butt;stroke-linejoin:miter;stroke:rgb(75%,0%,25%);stroke-opacity:1;stroke-miterlimit:10;" d="M -55.183594 23.097906 L -23.097656 -55.18725 L 55.183594 -23.097406 L 23.097656 55.183844 Z M -55.183594 23.097906 " transform="matrix(1,0,0,-1,144,144.719)"/>
<path style="fill:none;stroke-width:0.3985;stroke-linecap:butt;stroke-linejoin:miter;stroke:rgb(75%,0%,25%);stroke-opacity:1;stroke-miterlimit:10;" d="M -44.027344 -4.132563 L 4.132812 -44.027094 L 44.027344 4.133062 L -4.132812 44.023687 Z M -44.027344 -4.132563 " transform="matrix(1,0,0,-1,144,144.719)"/>
<path style="fill:none;stroke-width:0.3985;stroke-linecap:butt;stroke-linejoin:miter;stroke:rgb(75%,0%,25%);stroke-opacity:1;stroke-miterlimit:10;" d="M -27.273438 -18.007563 L 18.007812 -27.277094 L 27.273438 18.008062 L -18.007812 27.273687 Z M -27.273438 -18.007563 " transform="matrix(1,0,0,-1,144,144.719)"/>
<path style="fill:none;stroke-width:0.3985;stroke-linecap:butt;stroke-linejoin:miter;stroke:rgb(75%,0%,25%);stroke-opacity:1;stroke-miterlimit:10;" d="M -11.523438 -21.230219 L 21.230469 -11.523188 L 11.523438 21.230719 L -21.230469 11.523687 Z M -11.523438 -21.230219 " transform="matrix(1,0,0,-1,144,144.719)"/>
<path style="fill:none;stroke-width:0.3985;stroke-linecap:butt;stroke-linejoin:miter;stroke:rgb(75%,0%,25%);stroke-opacity:1;stroke-miterlimit:10;" d="M -0.128906 -17.855219 L 17.855469 -0.128656 L 0.128906 17.855719 L -17.855469 0.129156 Z M -0.128906 -17.855219 " transform="matrix(1,0,0,-1,144,144.719)"/>
<path style="fill:none;stroke-width:0.3985;stroke-linecap:butt;stroke-linejoin:miter;stroke:rgb(75%,0%,25%);stroke-opacity:1;stroke-miterlimit:10;" d="M 6.125 -11.691156 L 11.691406 6.12525 L -6.125 11.691656 L -11.691406 -6.12475 Z M 6.125 -11.691156 " transform="matrix(1,0,0,-1,144,144.719)"/>
<path style="fill:none;stroke-width:0.3985;stroke-linecap:butt;stroke-linejoin:miter;stroke:rgb(75%,0%,25%);stroke-opacity:1;stroke-miterlimit:10;" d="M 8.0625 -5.491938 L 5.492188 8.06275 L -8.0625 5.492437 L -5.492188 -8.06225 Z M 8.0625 -5.491938 " transform="matrix(1,0,0,-1,144,144.719)"/>
<path style="fill:none;stroke-width:0.3985;stroke-linecap:butt;stroke-linejoin:miter;stroke:rgb(75%,0%,25%);stroke-opacity:1;stroke-miterlimit:10;" d="M 7.167969 -0.781 L 0.78125 7.168219 L -7.167969 0.777594 L -0.78125 -7.167719 Z M 7.167969 -0.781 " transform="matrix(1,0,0,-1,144,144.719)"/>
<path style="fill:none;stroke-width:0.3985;stroke-linecap:butt;stroke-linejoin:miter;stroke:rgb(75%,0%,25%);stroke-opacity:1;stroke-miterlimit:10;" d="M 4.945312 1.984625 L -1.984375 4.945562 L -4.945312 -1.984125 L 1.984375 -4.945063 Z M 4.945312 1.984625 " transform="matrix(1,0,0,-1,144,144.719)"/>
<path style="fill:none;stroke-width:0.3985;stroke-linecap:butt;stroke-linejoin:miter;stroke:rgb(75%,0%,25%);stroke-opacity:1;stroke-miterlimit:10;" d="M 2.535156 3.015875 L -3.015625 2.535406 L -2.535156 -3.015375 L 3.015625 -2.534906 Z M 2.535156 3.015875 " transform="matrix(1,0,0,-1,144,144.719)"/>
<path style="fill:none;stroke-width:0.3985;stroke-linecap:butt;stroke-linejoin:miter;stroke:rgb(75%,0%,25%);stroke-opacity:1;stroke-miterlimit:10;" d="M 0.605469 2.847906 L -2.847656 0.605719 L -0.605469 -2.847406 L 2.847656 -0.605219 Z M 0.605469 2.847906 " transform="matrix(1,0,0,-1,144,144.719)"/>
<path style="fill:none;stroke-width:0.3985;stroke-linecap:butt;stroke-linejoin:miter;stroke:rgb(75%,0%,25%);stroke-opacity:1;stroke-miterlimit:10;" d="M -0.59375 2.066656 L -2.066406 -0.5935 L 0.59375 -2.066156 L 2.066406 0.594 Z M -0.59375 2.066656 " transform="matrix(1,0,0,-1,144,144.719)"/>
</g>
</svg>
