<?xml version="1.0" encoding="UTF-8"?>
<svg xmlns="http://www.w3.org/2000/svg" xmlns:xlink="http://www.w3.org/1999/xlink" width="288pt" height="288pt" viewBox="0 0 288 288" version="1.1">
<g id="surface1">
<path style="fill:none;stroke-width:0.3985;stroke-linecap:butt;stroke-linejoin:miter;stroke:rgb(75%,0%,25%);stroke-opacity:1;stroke-miterlimit:10;" d="M 141.734375 141.734625 L -141.734375 141.734625 L -141.734375 -141.734125 L 141.734375 -141.734125 Z M 141.734375 141.734625 " transform="matrix(1,0,0,-1,144,144.719)"/>
<path style="fill:none;stroke-width:0.3985;stroke-linecap:butt;stroke-linejoin:miter;stroke:rgb(75%,0%,25%);stroke-opacity:1;stroke-miterlimit:10;" d="M 58.359375 141.734625 L -141.734375 58.359625 L -58.359375 -141.734125 L 141.734375 -58.359125 Z M 58.359375 141.734625 " transform="matrix(1,0,0,-1,144,144.719)"/>
<path style="fill:none;stroke-width:0.3985;stroke-linecap:butt;stroke-linejoin:miter;stroke:rgb(75%,0%,25%);stroke-opacity:1;stroke-miterlimit:10;" d="M -0.492188 117.211187 L -117.210938 -0.491938 L 0.492188 -117.210688 L 117.210938 0.488531 Z M -0.492188 117.211187 " transform="matrix(1,0,0,-1,144,144.719)"/>
<path style="fill:none;stroke-width:0.3985;stroke-linecap:butt;stroke-linejoin:miter;stroke:rgb(75%,0%,25%);stroke-opacity:1;stroke-miterlimit:10;" d="M -34.820312 82.594 L -82.59375 -34.820063 L 34.820312 -82.5935 L 82.59375 34.820562 Z M -34.820312 82.594 " transform="matrix(1,0,0,-1,144,144.719)"/>
<path style="fill:none;stroke-width:0.3985;stroke-linecap:butt;stroke-linejoin:miter;stroke:rgb(75%,0%,25%);stroke-opacity:1;stroke-miterlimit:10;" d="M -48.871094 48.058844 L -48.058594 -48.87475 L 48.871094 -48.058344 L 48.058594 48.871344 Z M -48.871094 48.058844 " transform="matrix(1,0,0,-1,144,144.719)"/>
<path style="fill:none;stroke-width:0.3985;stroke-linecap:butt;stroke-linejoin:miter;stroke:rgb(75%,0%,25%);stroke-opacity:1;stroke-miterlimit:10;" d="M -48.632812 19.551031 L -19.550781 -48.632563 L 48.632812 -19.550531 L 19.550781 48.633062 Z M -48.632812 19.551031 " transform="matrix(1,0,0,-1,144,144.719)"/>
<path style="fill:none;stroke-width:0.3985;stroke-linecap:butt;stroke-linejoin:miter;stroke:rgb(75%,0%,25%);stroke-opacity:1;stroke-miterlimit:10;" d="M -40.078125 -0.503656 L 0.5 -40.077875 L 40.078125 0.50025 L -0.5 40.078375 Z M -40.078125 -0.503656 " transform="matrix(1,0,0,-1,144,144.719)"/>
<path style="fill:none;stroke-width:0.3985;stroke-linecap:butt;stroke-linejoin:miter;stroke:rgb(75%,0%,25%);stroke-opacity:1;stroke-miterlimit:10;" d="M -28.144531 -12.144281 L 12.144531 -28.144281 L 28.144531 12.144781 L -12.144531 28.140875 Z M -28.144531 -12.144281 " transform="matrix(1,0,0,-1,144,144.719)"/>
<path style="fill:none;stroke-width:0.3985;stroke-linecap:butt;stroke-linejoin:miter;stroke:rgb(75%,0%,25%);stroke-opacity:1;stroke-miterlimit:10;" d="M -16.292969 -16.851313 L 16.847656 -16.292719 L 16.292969 16.847906 L -16.847656 16.293219 Z M -16.292969 -16.851313 " transform="matrix(1,0,0,-1,144,144.719)"/>
<path style="fill:none;stroke-width:0.3985;stroke-linecap:butt;stroke-linejoin:miter;stroke:rgb(75%,0%,25%);stroke-opacity:1;stroke-miterlimit:10;" d="M -6.546875 -16.683344 L 16.683594 -6.546625 L 6.546875 16.683844 L -16.683594 6.543219 Z M -6.546875 -16.683344 " transform="matrix(1,0,0,-1,144,144.719)"/>
<path style="fill:none;stroke-width:0.3985;stroke-linecap:butt;stroke-linejoin:miter;stroke:rgb(75%,0%,25%);stroke-opacity:1;stroke-miterlimit:10;" d="M 0.285156 -13.702875 L 13.703125 0.285406 L -0.285156 13.703375 L -13.703125 -0.284906 Z M 0.285156 -13.702875 " transform="matrix(1,0,0,-1,144,144.719)"/>
<path style="fill:none;stroke-width:0.3985;stroke-linecap:butt;stroke-linejoin:miter;stroke:rgb(75%,0%,25%);stroke-opacity:1;stroke-miterlimit:10;" d="M 4.230469 -9.589594 L 9.589844 4.230719 L -4.230469 9.590094 L -9.589844 -4.234125 Z M 4.230469 -9.589594 " transform="matrix(1,0,0,-1,144,144.719)"/>
<path style="fill:none;stroke-width:0.3985;stroke-linecap:butt;stroke-linejoin:miter;stroke:rgb(75%,0%,25%);stroke-opacity:1;stroke-miterlimit:10;" d="M 5.808594 -5.523188 L 5.523438 5.808844 L -5.808594 5.523687 L -5.523438 -5.808344 Z M 5.808594 -5.523188 " transform="matrix(1,0,0,-1,144,144.719)"/>
<path style="fill:none;stroke-width:0.3985;stroke-linecap:butt;stroke-linejoin:miter;stroke:rgb(75%,0%,25%);stroke-opacity:1;stroke-miterlimit:10;" d="M 5.722656 -2.191156 L 2.191406 5.722906 L -5.722656 2.191656 L -2.191406 -5.722406 Z M 5.722656 -2.191156 " transform="matrix(1,0,0,-1,144,144.719)"/>
<path style="fill:none;stroke-width:0.3985;stroke-linecap:butt;stroke-linejoin:miter;stroke:rgb(75%,0%,25%);stroke-opacity:1;stroke-miterlimit:10;" d="M 4.6875 0.136969 L -0.136719 4.683844 L -4.6875 -0.136469 L 0.136719 -4.68725 Z M 4.6875 0.136969 " transform="matrix(1,0,0,-1,144,144.719)"/>
<path style="fill:none;stroke-width:0.3985;stroke-linecap:butt;stroke-linejoin:miter;stroke:rgb(75%,0%,25%);stroke-opacity:1;stroke-miterlimit:10;" d="M 3.265625 1.472906 L -1.472656 3.265875 L -3.265625 -1.472406 L 1.472656 -3.265375 Z M 3.265625 1.472906 " transform="matrix(1,0,0,-1,144,144.719)"/>
</g>
</svg>
