<?xml version="1.0" encoding="UTF-8"?>
<svg xmlns="http://www.w3.org/2000/svg" xmlns:xlink="http://www.w3.org/1999/xlink" width="288pt" height="288pt" viewBox="0 0 288 288" version="1.1">
<g id="surface1">
<path style="fill:none;stroke-width:0.3985;stroke-linecap:butt;stroke-linejoin:miter;stroke:rgb(75%,0%,25%);stroke-opacity:1;stroke-miterlimit:10;" d="M 141.734375 141.734625 L -141.734375 141.734625 L -141.734375 -141.734125 L 141.734375 -141.734125 Z M 141.734375 141.734625 " transform="matrix(1,0,0,-1,144,144.719)"/>
<path style="fill:none;stroke-width:0.3985;stroke-linecap:butt;stroke-linejoin:miter;stroke:rgb(75%,0%,25%);stroke-opacity:1;stroke-miterlimit:10;" d="M 77.722656 141.734625 L -141.734375 77.722906 L -77.722656 -141.734125 L 141.734375 -77.722406 Z M 77.722656 141.734625 " transform="matrix(1,0,0,-1,144,144.719)"/>
<path style="fill:none;stroke-width:0.3985;stroke-linecap:butt;stroke-linejoin:miter;stroke:rgb(75%,0%,25%);stroke-opacity:1;stroke-miterlimit:10;" d="M 28.171875 127.2815 L -127.28125 28.172125 L -28.171875 -127.281 L 127.28125 -28.171625 Z M 28.171875 127.2815 " transform="matrix(1,0,0,-1,144,144.719)"/>
<path style="fill:none;stroke-width:0.3985;stroke-linecap:butt;stroke-linejoin:miter;stroke:rgb(75%,0%,25%);stroke-opacity:1;stroke-miterlimit:10;" d="M -6.929688 104.898687 L -104.898438 -6.929438 L 6.929688 -104.902094 L 104.898438 6.929937 Z M -6.929688 104.898687 " transform="matrix(1,0,0,-1,144,144.719)"/>
<path style="fill:none;stroke-width:0.3985;stroke-linecap:butt;stroke-linejoin:miter;stroke:rgb(75%,0%,25%);stroke-opacity:1;stroke-miterlimit:10;" d="M -29.050781 79.648687 L -79.648438 -29.054438 L 29.050781 -79.648188 L 79.648438 29.051031 Z M -29.050781 79.648687 " transform="matrix(1,0,0,-1,144,144.719)"/>
<path style="fill:none;stroke-width:0.3985;stroke-linecap:butt;stroke-linejoin:miter;stroke:rgb(75%,0%,25%);stroke-opacity:1;stroke-miterlimit:10;" d="M -40.480469 55.101812 L -55.101562 -40.480219 L 40.480469 -55.101313 L 55.101562 40.480719 Z M -40.480469 55.101812 " transform="matrix(1,0,0,-1,144,144.719)"/>
<path style="fill:none;stroke-width:0.3985;stroke-linecap:butt;stroke-linejoin:miter;stroke:rgb(75%,0%,25%);stroke-opacity:1;stroke-miterlimit:10;" d="M -43.78125 33.519781 L -33.519531 -43.781 L 43.78125 -33.519281 L 33.519531 43.7815 Z M -43.78125 33.519781 " transform="matrix(1,0,0,-1,144,144.719)"/>
<path style="fill:none;stroke-width:0.3985;stroke-linecap:butt;stroke-linejoin:miter;stroke:rgb(75%,0%,25%);stroke-opacity:1;stroke-miterlimit:10;" d="M -41.464844 16.06275 L -16.0625 -41.464594 L 41.464844 -16.06225 L 16.0625 41.461187 Z M -41.464844 16.06275 " transform="matrix(1,0,0,-1,144,144.719)"/>
<path style="fill:none;stroke-width:0.3985;stroke-linecap:butt;stroke-linejoin:miter;stroke:rgb(75%,0%,25%);stroke-opacity:1;stroke-miterlimit:10;" d="M -35.726562 3.074469 L -3.074219 -35.730219 L 35.726562 -3.073969 L 3.074219 35.726812 Z M -35.726562 3.074469 " transform="matrix(1,0,0,-1,144,144.719)"/>
<path style="fill:none;stroke-width:0.3985;stroke-linecap:butt;stroke-linejoin:miter;stroke:rgb(75%,0%,25%);stroke-opacity:1;stroke-miterlimit:10;" d="M -28.355469 -5.68725 L 5.6875 -28.355219 L 28.355469 5.68775 L -5.6875 28.355719 Z M -28.355469 -5.68725 " transform="matrix(1,0,0,-1,144,144.719)"/>
<path style="fill:none;stroke-width:0.3985;stroke-linecap:butt;stroke-linejoin:miter;stroke:rgb(75%,0%,25%);stroke-opacity:1;stroke-miterlimit:10;" d="M -20.667969 -10.804438 L 10.804688 -20.667719 L 20.667969 10.804937 L -10.804688 20.668219 Z M -20.667969 -10.804438 " transform="matrix(1,0,0,-1,144,144.719)"/>
<path style="fill:none;stroke-width:0.3985;stroke-linecap:butt;stroke-linejoin:miter;stroke:rgb(75%,0%,25%);stroke-opacity:1;stroke-miterlimit:10;" d="M -13.5625 -13.034906 L 13.035156 -13.56225 L 13.5625 13.035406 L -13.035156 13.56275 Z M -13.5625 -13.034906 " transform="matrix(1,0,0,-1,144,144.719)"/>
<path style="fill:none;stroke-width:0.3985;stroke-linecap:butt;stroke-linejoin:miter;stroke:rgb(75%,0%,25%);stroke-opacity:1;stroke-miterlimit:10;" d="M -7.558594 -13.152094 L 13.152344 -7.558344 L 7.558594 13.152594 L -13.152344 7.558844 Z M -7.558594 -13.152094 " transform="matrix(1,0,0,-1,144,144.719)"/>
<path style="fill:none;stroke-width:0.3985;stroke-linecap:butt;stroke-linejoin:miter;stroke:rgb(75%,0%,25%);stroke-opacity:1;stroke-miterlimit:10;" d="M -2.878906 -11.890375 L 11.890625 -2.878656 L 2.878906 11.886969 L -11.890625 2.879156 Z M -2.878906 -11.890375 " transform="matrix(1,0,0,-1,144,144.719)"/>
<path style="fill:none;stroke-width:0.3985;stroke-linecap:butt;stroke-linejoin:miter;stroke:rgb(75%,0%,25%);stroke-opacity:1;stroke-miterlimit:10;" d="M 0.453125 -9.851313 L 9.851562 0.453375 L -0.453125 9.851812 L -9.851562 -0.452875 Z M 0.453125 -9.851313 " transform="matrix(1,0,0,-1,144,144.719)"/>
<path style="fill:none;stroke-width:0.3985;stroke-linecap:butt;stroke-linejoin:miter;stroke:rgb(75%,0%,25%);stroke-opacity:1;stroke-miterlimit:10;" d="M 2.578125 -7.527094 L 7.527344 2.578375 L -2.578125 7.527594 L -7.527344 -2.577875 Z M 2.578125 -7.527094 " transform="matrix(1,0,0,-1,144,144.719)"/>
</g>
</svg>
